<svg width="35" height="35" viewBox="0 0 35 35" fill="none" xmlns="http://www.w3.org/2000/svg">
<g clip-path="url(#clip0_25_28)">
<path d="M17.5 1.45833V33.5417M24.7917 7.29166H13.8542C12.5005 7.29166 11.2022 7.82942 10.245 8.78664C9.28776 9.74386 8.75 11.0421 8.75 12.3958C8.75 13.7495 9.28776 15.0478 10.245 16.005C11.2022 16.9622 12.5005 17.5 13.8542 17.5H21.1458C22.4995 17.5 23.7978 18.0378 24.755 18.995C25.7122 19.9522 26.25 21.2505 26.25 22.6042C26.25 23.9579 25.7122 25.2561 24.755 26.2134C23.7978 27.1706 22.4995 27.7083 21.1458 27.7083H8.75" stroke="#34C759" stroke-width="4" stroke-linecap="round" stroke-linejoin="round"/>
</g>
<defs>
<clipPath id="clip0_25_28">
<rect width="35" height="35" fill="white"/>
</clipPath>
</defs>
</svg>
