<svg width="43" height="43" viewBox="0 0 43 43" fill="none" xmlns="http://www.w3.org/2000/svg">
<g filter="url(#filter0_d_24_92)">
<g clip-path="url(#clip0_24_92)">
<path d="M5.45831 1.45833H11.2916L15.2 20.9854C15.3333 21.6568 15.6986 22.2599 16.2318 22.6892C16.765 23.1184 17.4322 23.3464 18.1166 23.3333H32.2916C32.976 23.3464 33.6433 23.1184 34.1765 22.6892C34.7097 22.2599 35.075 21.6568 35.2083 20.9854L37.5416 8.74999H12.75M18.5833 30.625C18.5833 31.4304 17.9304 32.0833 17.125 32.0833C16.3196 32.0833 15.6666 31.4304 15.6666 30.625C15.6666 29.8196 16.3196 29.1667 17.125 29.1667C17.9304 29.1667 18.5833 29.8196 18.5833 30.625ZM34.625 30.625C34.625 31.4304 33.9721 32.0833 33.1666 32.0833C32.3612 32.0833 31.7083 31.4304 31.7083 30.625C31.7083 29.8196 32.3612 29.1667 33.1666 29.1667C33.9721 29.1667 34.625 29.8196 34.625 30.625Z" stroke="#FF8D28" stroke-width="4" stroke-linecap="round" stroke-linejoin="round"/>
</g>
<rect x="4.5" y="0.5" width="34" height="34" stroke="white" shape-rendering="crispEdges"/>
</g>
<defs>
<filter id="filter0_d_24_92" x="0" y="0" width="43" height="43" filterUnits="userSpaceOnUse" color-interpolation-filters="sRGB">
<feFlood flood-opacity="0" result="BackgroundImageFix"/>
<feColorMatrix in="SourceAlpha" type="matrix" values="0 0 0 0 0 0 0 0 0 0 0 0 0 0 0 0 0 0 127 0" result="hardAlpha"/>
<feOffset dy="4"/>
<feGaussianBlur stdDeviation="2"/>
<feComposite in2="hardAlpha" operator="out"/>
<feColorMatrix type="matrix" values="0 0 0 0 0 0 0 0 0 0 0 0 0 0 0 0 0 0 0.25 0"/>
<feBlend mode="normal" in2="BackgroundImageFix" result="effect1_dropShadow_24_92"/>
<feBlend mode="normal" in="SourceGraphic" in2="effect1_dropShadow_24_92" result="shape"/>
</filter>
<clipPath id="clip0_24_92">
<rect x="4" width="35" height="35" fill="white"/>
</clipPath>
</defs>
</svg>
