<svg width="1084" height="359" viewBox="0 0 1084 359" fill="none" xmlns="http://www.w3.org/2000/svg">
<path opacity="0.6" d="M7.9 245V241.775H13.925V260H10.325V245H7.9ZM17.3826 250.65C17.3826 247.767 17.8993 245.508 18.9326 243.875C19.9826 242.242 21.716 241.425 24.1326 241.425C26.5493 241.425 28.2743 242.242 29.3076 243.875C30.3576 245.508 30.8826 247.767 30.8826 250.65C30.8826 253.55 30.3576 255.825 29.3076 257.475C28.2743 259.125 26.5493 259.95 24.1326 259.95C21.716 259.95 19.9826 259.125 18.9326 257.475C17.8993 255.825 17.3826 253.55 17.3826 250.65ZM27.4326 250.65C27.4326 249.417 27.3493 248.383 27.1826 247.55C27.0326 246.7 26.716 246.008 26.2326 245.475C25.766 244.942 25.066 244.675 24.1326 244.675C23.1993 244.675 22.491 244.942 22.0076 245.475C21.541 246.008 21.2243 246.7 21.0576 247.55C20.9076 248.383 20.8326 249.417 20.8326 250.65C20.8326 251.917 20.9076 252.983 21.0576 253.85C21.2076 254.7 21.5243 255.392 22.0076 255.925C22.491 256.442 23.1993 256.7 24.1326 256.7C25.066 256.7 25.7743 256.442 26.2576 255.925C26.741 255.392 27.0576 254.7 27.2076 253.85C27.3576 252.983 27.4326 251.917 27.4326 250.65ZM33.5447 250.65C33.5447 247.767 34.0614 245.508 35.0947 243.875C36.1447 242.242 37.8781 241.425 40.2947 241.425C42.7114 241.425 44.4364 242.242 45.4697 243.875C46.5197 245.508 47.0447 247.767 47.0447 250.65C47.0447 253.55 46.5197 255.825 45.4697 257.475C44.4364 259.125 42.7114 259.95 40.2947 259.95C37.8781 259.95 36.1447 259.125 35.0947 257.475C34.0614 255.825 33.5447 253.55 33.5447 250.65ZM43.5947 250.65C43.5947 249.417 43.5114 248.383 43.3447 247.55C43.1947 246.7 42.8781 246.008 42.3947 245.475C41.9281 244.942 41.2281 244.675 40.2947 244.675C39.3614 244.675 38.6531 244.942 38.1697 245.475C37.7031 246.008 37.3864 246.7 37.2197 247.55C37.0697 248.383 36.9947 249.417 36.9947 250.65C36.9947 251.917 37.0697 252.983 37.2197 253.85C37.3697 254.7 37.6864 255.392 38.1697 255.925C38.6531 256.442 39.3614 256.7 40.2947 256.7C41.2281 256.7 41.9364 256.442 42.4197 255.925C42.9031 255.392 43.2197 254.7 43.3697 253.85C43.5197 252.983 43.5947 251.917 43.5947 250.65Z" fill="black"/>
<path opacity="0.6" d="M9.425 198.05C11.025 196.717 12.3 195.608 13.25 194.725C14.2 193.825 14.9917 192.892 15.625 191.925C16.2583 190.958 16.575 190.008 16.575 189.075C16.575 188.225 16.375 187.558 15.975 187.075C15.575 186.592 14.9583 186.35 14.125 186.35C13.2917 186.35 12.65 186.633 12.2 187.2C11.75 187.75 11.5167 188.508 11.5 189.475H8.1C8.16667 187.475 8.75833 185.958 9.875 184.925C11.0083 183.892 12.4417 183.375 14.175 183.375C16.075 183.375 17.5333 183.883 18.55 184.9C19.5667 185.9 20.075 187.225 20.075 188.875C20.075 190.175 19.725 191.417 19.025 192.6C18.325 193.783 17.525 194.817 16.625 195.7C15.725 196.567 14.55 197.617 13.1 198.85H20.475V201.75H8.125V199.15L9.425 198.05ZM22.6805 192.65C22.6805 189.767 23.1971 187.508 24.2305 185.875C25.2805 184.242 27.0138 183.425 29.4305 183.425C31.8471 183.425 33.5721 184.242 34.6055 185.875C35.6555 187.508 36.1805 189.767 36.1805 192.65C36.1805 195.55 35.6555 197.825 34.6055 199.475C33.5721 201.125 31.8471 201.95 29.4305 201.95C27.0138 201.95 25.2805 201.125 24.2305 199.475C23.1971 197.825 22.6805 195.55 22.6805 192.65ZM32.7305 192.65C32.7305 191.417 32.6471 190.383 32.4805 189.55C32.3305 188.7 32.0138 188.008 31.5305 187.475C31.0638 186.942 30.3638 186.675 29.4305 186.675C28.4971 186.675 27.7888 186.942 27.3055 187.475C26.8388 188.008 26.5221 188.7 26.3555 189.55C26.2055 190.383 26.1305 191.417 26.1305 192.65C26.1305 193.917 26.2055 194.983 26.3555 195.85C26.5055 196.7 26.8221 197.392 27.3055 197.925C27.7888 198.442 28.4971 198.7 29.4305 198.7C30.3638 198.7 31.0721 198.442 31.5555 197.925C32.0388 197.392 32.3555 196.7 32.5055 195.85C32.6555 194.983 32.7305 193.917 32.7305 192.65ZM38.8426 192.65C38.8426 189.767 39.3592 187.508 40.3926 185.875C41.4426 184.242 43.1759 183.425 45.5926 183.425C48.0092 183.425 49.7342 184.242 50.7676 185.875C51.8176 187.508 52.3426 189.767 52.3426 192.65C52.3426 195.55 51.8176 197.825 50.7676 199.475C49.7342 201.125 48.0092 201.95 45.5926 201.95C43.1759 201.95 41.4426 201.125 40.3926 199.475C39.3592 197.825 38.8426 195.55 38.8426 192.65ZM48.8926 192.65C48.8926 191.417 48.8092 190.383 48.6426 189.55C48.4926 188.7 48.1759 188.008 47.6926 187.475C47.2259 186.942 46.5259 186.675 45.5926 186.675C44.6592 186.675 43.9509 186.942 43.4676 187.475C43.0009 188.008 42.6842 188.7 42.5176 189.55C42.3676 190.383 42.2926 191.417 42.2926 192.65C42.2926 193.917 42.3676 194.983 42.5176 195.85C42.6676 196.7 42.9842 197.392 43.4676 197.925C43.9509 198.442 44.6592 198.7 45.5926 198.7C46.5259 198.7 47.2342 198.442 47.7176 197.925C48.2009 197.392 48.5176 196.7 48.6676 195.85C48.8176 194.983 48.8926 193.917 48.8926 192.65Z" fill="black"/>
<path opacity="0.6" d="M8.375 130.575C8.45833 128.908 9.04167 127.625 10.125 126.725C11.225 125.808 12.6667 125.35 14.45 125.35C15.6667 125.35 16.7083 125.567 17.575 126C18.4417 126.417 19.0917 126.992 19.525 127.725C19.975 128.442 20.2 129.258 20.2 130.175C20.2 131.225 19.925 132.117 19.375 132.85C18.8417 133.567 18.2 134.05 17.45 134.3V134.4C18.4167 134.7 19.1667 135.233 19.7 136C20.25 136.767 20.525 137.75 20.525 138.95C20.525 139.95 20.2917 140.842 19.825 141.625C19.375 142.408 18.7 143.025 17.8 143.475C16.9167 143.908 15.85 144.125 14.6 144.125C12.7167 144.125 11.1833 143.65 10 142.7C8.81667 141.75 8.19167 140.35 8.125 138.5H11.525C11.5583 139.317 11.8333 139.975 12.35 140.475C12.8833 140.958 13.6083 141.2 14.525 141.2C15.375 141.2 16.025 140.967 16.475 140.5C16.9417 140.017 17.175 139.4 17.175 138.65C17.175 137.65 16.8583 136.933 16.225 136.5C15.5917 136.067 14.6083 135.85 13.275 135.85H12.55V132.975H13.275C15.6417 132.975 16.825 132.183 16.825 130.6C16.825 129.883 16.6083 129.325 16.175 128.925C15.7583 128.525 15.15 128.325 14.35 128.325C13.5667 128.325 12.9583 128.542 12.525 128.975C12.1083 129.392 11.8667 129.925 11.8 130.575H8.375ZM23.2908 134.65C23.2908 131.767 23.8075 129.508 24.8408 127.875C25.8908 126.242 27.6242 125.425 30.0408 125.425C32.4575 125.425 34.1825 126.242 35.2158 127.875C36.2658 129.508 36.7908 131.767 36.7908 134.65C36.7908 137.55 36.2658 139.825 35.2158 141.475C34.1825 143.125 32.4575 143.95 30.0408 143.95C27.6242 143.95 25.8908 143.125 24.8408 141.475C23.8075 139.825 23.2908 137.55 23.2908 134.65ZM33.3408 134.65C33.3408 133.417 33.2575 132.383 33.0908 131.55C32.9408 130.7 32.6242 130.008 32.1408 129.475C31.6742 128.942 30.9742 128.675 30.0408 128.675C29.1075 128.675 28.3992 128.942 27.9158 129.475C27.4492 130.008 27.1325 130.7 26.9658 131.55C26.8158 132.383 26.7408 133.417 26.7408 134.65C26.7408 135.917 26.8158 136.983 26.9658 137.85C27.1158 138.7 27.4325 139.392 27.9158 139.925C28.3992 140.442 29.1075 140.7 30.0408 140.7C30.9742 140.7 31.6825 140.442 32.1658 139.925C32.6492 139.392 32.9658 138.7 33.1158 137.85C33.2658 136.983 33.3408 135.917 33.3408 134.65ZM39.4529 134.65C39.4529 131.767 39.9696 129.508 41.0029 127.875C42.0529 126.242 43.7863 125.425 46.2029 125.425C48.6196 125.425 50.3446 126.242 51.3779 127.875C52.4279 129.508 52.9529 131.767 52.9529 134.65C52.9529 137.55 52.4279 139.825 51.3779 141.475C50.3446 143.125 48.6196 143.95 46.2029 143.95C43.7863 143.95 42.0529 143.125 41.0029 141.475C39.9696 139.825 39.4529 137.55 39.4529 134.65ZM49.5029 134.65C49.5029 133.417 49.4196 132.383 49.2529 131.55C49.1029 130.7 48.7863 130.008 48.3029 129.475C47.8363 128.942 47.1363 128.675 46.2029 128.675C45.2696 128.675 44.5613 128.942 44.0779 129.475C43.6113 130.008 43.2946 130.7 43.1279 131.55C42.9779 132.383 42.9029 133.417 42.9029 134.65C42.9029 135.917 42.9779 136.983 43.1279 137.85C43.2779 138.7 43.5946 139.392 44.0779 139.925C44.5613 140.442 45.2696 140.7 46.2029 140.7C47.1363 140.7 47.8446 140.442 48.3279 139.925C48.8113 139.392 49.1279 138.7 49.2779 137.85C49.4279 136.983 49.5029 135.917 49.5029 134.65Z" fill="black"/>
<path opacity="0.6" d="M1.175 82.45V79.7L9.35 68H13.425V79.4H15.625V82.45H13.425V86H9.925V82.45H1.175ZM10.15 71.75L5.025 79.4H10.15V71.75ZM17.8533 76.65C17.8533 73.7667 18.37 71.5083 19.4033 69.875C20.4533 68.2417 22.1867 67.425 24.6033 67.425C27.02 67.425 28.745 68.2417 29.7783 69.875C30.8283 71.5083 31.3533 73.7667 31.3533 76.65C31.3533 79.55 30.8283 81.825 29.7783 83.475C28.745 85.125 27.02 85.95 24.6033 85.95C22.1867 85.95 20.4533 85.125 19.4033 83.475C18.37 81.825 17.8533 79.55 17.8533 76.65ZM27.9033 76.65C27.9033 75.4167 27.82 74.3833 27.6533 73.55C27.5033 72.7 27.1867 72.0083 26.7033 71.475C26.2367 70.9417 25.5367 70.675 24.6033 70.675C23.67 70.675 22.9617 70.9417 22.4783 71.475C22.0117 72.0083 21.695 72.7 21.5283 73.55C21.3783 74.3833 21.3033 75.4167 21.3033 76.65C21.3033 77.9167 21.3783 78.9833 21.5283 79.85C21.6783 80.7 21.995 81.3917 22.4783 81.925C22.9617 82.4417 23.67 82.7 24.6033 82.7C25.5367 82.7 26.245 82.4417 26.7283 81.925C27.2117 81.3917 27.5283 80.7 27.6783 79.85C27.8283 78.9833 27.9033 77.9167 27.9033 76.65ZM34.0154 76.65C34.0154 73.7667 34.5321 71.5083 35.5654 69.875C36.6154 68.2417 38.3488 67.425 40.7654 67.425C43.1821 67.425 44.9071 68.2417 45.9404 69.875C46.9904 71.5083 47.5154 73.7667 47.5154 76.65C47.5154 79.55 46.9904 81.825 45.9404 83.475C44.9071 85.125 43.1821 85.95 40.7654 85.95C38.3488 85.95 36.6154 85.125 35.5654 83.475C34.5321 81.825 34.0154 79.55 34.0154 76.65ZM44.0654 76.65C44.0654 75.4167 43.9821 74.3833 43.8154 73.55C43.6654 72.7 43.3488 72.0083 42.8654 71.475C42.3988 70.9417 41.6988 70.675 40.7654 70.675C39.8321 70.675 39.1238 70.9417 38.6404 71.475C38.1738 72.0083 37.8571 72.7 37.6904 73.55C37.5404 74.3833 37.4654 75.4167 37.4654 76.65C37.4654 77.9167 37.5404 78.9833 37.6904 79.85C37.8404 80.7 38.1571 81.3917 38.6404 81.925C39.1238 82.4417 39.8321 82.7 40.7654 82.7C41.6988 82.7 42.4071 82.4417 42.8904 81.925C43.3738 81.3917 43.6904 80.7 43.8404 79.85C43.9904 78.9833 44.0654 77.9167 44.0654 76.65Z" fill="black"/>
<path opacity="0.6" d="M13.575 12.8H5.475V17.075C5.825 16.6417 6.325 16.2917 6.975 16.025C7.625 15.7417 8.31667 15.6 9.05 15.6C10.3833 15.6 11.475 15.8917 12.325 16.475C13.175 17.0583 13.7917 17.8083 14.175 18.725C14.5583 19.625 14.75 20.5917 14.75 21.625C14.75 23.5417 14.2 25.0833 13.1 26.25C12.0167 27.4167 10.4667 28 8.45 28C6.55 28 5.03333 27.525 3.9 26.575C2.76667 25.625 2.125 24.3833 1.975 22.85H5.375C5.525 23.5167 5.85833 24.05 6.375 24.45C6.90833 24.85 7.58333 25.05 8.4 25.05C9.38333 25.05 10.125 24.7417 10.625 24.125C11.125 23.5083 11.375 22.6917 11.375 21.675C11.375 20.6417 11.1167 19.8583 10.6 19.325C10.1 18.775 9.35833 18.5 8.375 18.5C7.675 18.5 7.09167 18.675 6.625 19.025C6.15833 19.375 5.825 19.8417 5.625 20.425H2.275V9.725H13.575V12.8ZM17.4139 18.65C17.4139 15.7667 17.9305 13.5083 18.9639 11.875C20.0139 10.2417 21.7472 9.425 24.1639 9.425C26.5805 9.425 28.3055 10.2417 29.3389 11.875C30.3889 13.5083 30.9139 15.7667 30.9139 18.65C30.9139 21.55 30.3889 23.825 29.3389 25.475C28.3055 27.125 26.5805 27.95 24.1639 27.95C21.7472 27.95 20.0139 27.125 18.9639 25.475C17.9305 23.825 17.4139 21.55 17.4139 18.65ZM27.4639 18.65C27.4639 17.4167 27.3805 16.3833 27.2139 15.55C27.0639 14.7 26.7472 14.0083 26.2639 13.475C25.7972 12.9417 25.0972 12.675 24.1639 12.675C23.2305 12.675 22.5222 12.9417 22.0389 13.475C21.5722 14.0083 21.2555 14.7 21.0889 15.55C20.9389 16.3833 20.8639 17.4167 20.8639 18.65C20.8639 19.9167 20.9389 20.9833 21.0889 21.85C21.2389 22.7 21.5555 23.3917 22.0389 23.925C22.5222 24.4417 23.2305 24.7 24.1639 24.7C25.0972 24.7 25.8055 24.4417 26.2889 23.925C26.7722 23.3917 27.0889 22.7 27.2389 21.85C27.3889 20.9833 27.4639 19.9167 27.4639 18.65ZM33.576 18.65C33.576 15.7667 34.0926 13.5083 35.126 11.875C36.176 10.2417 37.9093 9.425 40.326 9.425C42.7426 9.425 44.4676 10.2417 45.501 11.875C46.551 13.5083 47.076 15.7667 47.076 18.65C47.076 21.55 46.551 23.825 45.501 25.475C44.4676 27.125 42.7426 27.95 40.326 27.95C37.9093 27.95 36.176 27.125 35.126 25.475C34.0926 23.825 33.576 21.55 33.576 18.65ZM43.626 18.65C43.626 17.4167 43.5426 16.3833 43.376 15.55C43.226 14.7 42.9093 14.0083 42.426 13.475C41.9593 12.9417 41.2593 12.675 40.326 12.675C39.3926 12.675 38.6843 12.9417 38.201 13.475C37.7343 14.0083 37.4176 14.7 37.251 15.55C37.101 16.3833 37.026 17.4167 37.026 18.65C37.026 19.9167 37.101 20.9833 37.251 21.85C37.401 22.7 37.7176 23.3917 38.201 23.925C38.6843 24.4417 39.3926 24.7 40.326 24.7C41.2593 24.7 41.9676 24.4417 42.451 23.925C42.9343 23.3917 43.251 22.7 43.401 21.85C43.551 20.9833 43.626 19.9167 43.626 18.65Z" fill="black"/>
<path opacity="0.6" d="M20.325 308.65C20.325 305.767 20.8417 303.508 21.875 301.875C22.925 300.242 24.6583 299.425 27.075 299.425C29.4917 299.425 31.2167 300.242 32.25 301.875C33.3 303.508 33.825 305.767 33.825 308.65C33.825 311.55 33.3 313.825 32.25 315.475C31.2167 317.125 29.4917 317.95 27.075 317.95C24.6583 317.95 22.925 317.125 21.875 315.475C20.8417 313.825 20.325 311.55 20.325 308.65ZM30.375 308.65C30.375 307.417 30.2917 306.383 30.125 305.55C29.975 304.7 29.6583 304.008 29.175 303.475C28.7083 302.942 28.0083 302.675 27.075 302.675C26.1417 302.675 25.4333 302.942 24.95 303.475C24.4833 304.008 24.1667 304.7 24 305.55C23.85 306.383 23.775 307.417 23.775 308.65C23.775 309.917 23.85 310.983 24 311.85C24.15 312.7 24.4667 313.392 24.95 313.925C25.4333 314.442 26.1417 314.7 27.075 314.7C28.0083 314.7 28.7167 314.442 29.2 313.925C29.6833 313.392 30 312.7 30.15 311.85C30.3 310.983 30.375 309.917 30.375 308.65Z" fill="black"/>
<line opacity="0.6" x1="86.0031" y1="201.5" x2="1075" y2="207.72" stroke="black"/>
<line opacity="0.6" x1="86.0031" y1="259.5" x2="1075" y2="265.72" stroke="black"/>
<line opacity="0.6" x1="86.0031" y1="314.5" x2="1075" y2="320.72" stroke="black"/>
<line opacity="0.6" x1="86.0031" y1="134.5" x2="1075" y2="140.72" stroke="black"/>
<line opacity="0.6" x1="86.0031" y1="79.5" x2="1075" y2="85.7201" stroke="black"/>
<line opacity="0.6" x1="86.0031" y1="12.5" x2="1075" y2="18.7201" stroke="black"/>
<rect opacity="0.7" x="89" y="135" width="42" height="174" fill="#F97316"/>
<rect opacity="0.7" x="236" y="154" width="42" height="157" fill="#F97316"/>
<rect x="391" y="58" width="42" height="256" fill="#F97316" fill-opacity="0.7"/>
<rect x="546" y="93" width="42" height="225" fill="#F97316" fill-opacity="0.7"/>
<rect x="701" y="116" width="42" height="205" fill="#F97316" fill-opacity="0.7"/>
<rect x="851" y="116" width="42" height="202" fill="#F97316" fill-opacity="0.7"/>
<rect x="985" y="154" width="42" height="164" fill="#F97316" fill-opacity="0.7"/>
<rect x="146" y="232" width="42" height="77" fill="#FF6800"/>
<rect x="293" y="212" width="42" height="99" fill="#FF6800"/>
<rect x="448" y="232" width="42" height="82" fill="#FF6800"/>
<rect x="603" y="192" width="42" height="126" fill="#FF6800"/>
<rect x="758" y="195" width="42" height="126" fill="#D9D9D9"/>
<rect x="908" y="174" width="42" height="144" fill="#FF6800"/>
<rect x="1042" y="192" width="42" height="126" fill="#FF6800"/>
<path d="M123.75 331.55V349H120.25V337.65L115.575 349H112.925L108.225 337.65V349H104.725V331.55H108.7L114.25 344.525L119.8 331.55H123.75ZM133.36 349.225C132.027 349.225 130.827 348.933 129.76 348.35C128.694 347.75 127.852 346.908 127.235 345.825C126.635 344.742 126.335 343.492 126.335 342.075C126.335 340.658 126.644 339.408 127.26 338.325C127.894 337.242 128.752 336.408 129.835 335.825C130.919 335.225 132.127 334.925 133.46 334.925C134.794 334.925 136.002 335.225 137.085 335.825C138.169 336.408 139.019 337.242 139.635 338.325C140.269 339.408 140.585 340.658 140.585 342.075C140.585 343.492 140.26 344.742 139.61 345.825C138.977 346.908 138.11 347.75 137.01 348.35C135.927 348.933 134.71 349.225 133.36 349.225ZM133.36 346.175C133.994 346.175 134.585 346.025 135.135 345.725C135.702 345.408 136.152 344.942 136.485 344.325C136.819 343.708 136.985 342.958 136.985 342.075C136.985 340.758 136.635 339.75 135.935 339.05C135.252 338.333 134.41 337.975 133.41 337.975C132.41 337.975 131.569 338.333 130.885 339.05C130.219 339.75 129.885 340.758 129.885 342.075C129.885 343.392 130.21 344.408 130.86 345.125C131.527 345.825 132.36 346.175 133.36 346.175ZM150.828 334.95C152.478 334.95 153.811 335.475 154.828 336.525C155.844 337.558 156.353 339.008 156.353 340.875V349H152.853V341.35C152.853 340.25 152.578 339.408 152.028 338.825C151.478 338.225 150.728 337.925 149.778 337.925C148.811 337.925 148.044 338.225 147.478 338.825C146.928 339.408 146.653 340.25 146.653 341.35V349H143.153V335.15H146.653V336.875C147.119 336.275 147.711 335.808 148.428 335.475C149.161 335.125 149.961 334.95 150.828 334.95Z" fill="black"/>
<path d="M275.6 331.55V334.375H270.95V349H267.45V334.375H262.8V331.55H275.6ZM291.229 335.15V349H287.704V347.25C287.254 347.85 286.662 348.325 285.929 348.675C285.212 349.008 284.429 349.175 283.579 349.175C282.495 349.175 281.537 348.95 280.704 348.5C279.87 348.033 279.212 347.358 278.729 346.475C278.262 345.575 278.029 344.508 278.029 343.275V335.15H281.529V342.775C281.529 343.875 281.804 344.725 282.354 345.325C282.904 345.908 283.654 346.2 284.604 346.2C285.57 346.2 286.329 345.908 286.879 345.325C287.429 344.725 287.704 343.875 287.704 342.775V335.15H291.229ZM307.557 341.775C307.557 342.275 307.524 342.725 307.457 343.125H297.332C297.415 344.125 297.765 344.908 298.382 345.475C298.999 346.042 299.757 346.325 300.657 346.325C301.957 346.325 302.882 345.767 303.432 344.65H307.207C306.807 345.983 306.04 347.083 304.907 347.95C303.774 348.8 302.382 349.225 300.732 349.225C299.399 349.225 298.199 348.933 297.132 348.35C296.082 347.75 295.257 346.908 294.657 345.825C294.074 344.742 293.782 343.492 293.782 342.075C293.782 340.642 294.074 339.383 294.657 338.3C295.24 337.217 296.057 336.383 297.107 335.8C298.157 335.217 299.365 334.925 300.732 334.925C302.049 334.925 303.224 335.208 304.257 335.775C305.307 336.342 306.115 337.15 306.682 338.2C307.265 339.233 307.557 340.425 307.557 341.775ZM303.932 340.775C303.915 339.875 303.59 339.158 302.957 338.625C302.324 338.075 301.549 337.8 300.632 337.8C299.765 337.8 299.032 338.067 298.432 338.6C297.849 339.117 297.49 339.842 297.357 340.775H303.932Z" fill="black"/>
<path d="M432.05 331.55L427.175 349H423.05L419.775 336.575L416.35 349L412.25 349.025L407.55 331.55H411.3L414.375 345.1L417.925 331.55H421.825L425.175 345.025L428.275 331.55H432.05ZM447.21 341.775C447.21 342.275 447.177 342.725 447.11 343.125H436.985C437.069 344.125 437.419 344.908 438.035 345.475C438.652 346.042 439.41 346.325 440.31 346.325C441.61 346.325 442.535 345.767 443.085 344.65H446.86C446.46 345.983 445.694 347.083 444.56 347.95C443.427 348.8 442.035 349.225 440.385 349.225C439.052 349.225 437.852 348.933 436.785 348.35C435.735 347.75 434.91 346.908 434.31 345.825C433.727 344.742 433.435 343.492 433.435 342.075C433.435 340.642 433.727 339.383 434.31 338.3C434.894 337.217 435.71 336.383 436.76 335.8C437.81 335.217 439.019 334.925 440.385 334.925C441.702 334.925 442.877 335.208 443.91 335.775C444.96 336.342 445.769 337.15 446.335 338.2C446.919 339.233 447.21 340.425 447.21 341.775ZM443.585 340.775C443.569 339.875 443.244 339.158 442.61 338.625C441.977 338.075 441.202 337.8 440.285 337.8C439.419 337.8 438.685 338.067 438.085 338.6C437.502 339.117 437.144 339.842 437.01 340.775H443.585ZM448.865 342.025C448.865 340.625 449.14 339.383 449.69 338.3C450.257 337.217 451.023 336.383 451.99 335.8C452.957 335.217 454.032 334.925 455.215 334.925C456.115 334.925 456.973 335.125 457.79 335.525C458.607 335.908 459.257 336.425 459.74 337.075V330.5H463.29V349H459.74V346.95C459.307 347.633 458.698 348.183 457.915 348.6C457.132 349.017 456.223 349.225 455.19 349.225C454.023 349.225 452.957 348.925 451.99 348.325C451.023 347.725 450.257 346.883 449.69 345.8C449.14 344.7 448.865 343.442 448.865 342.025ZM459.765 342.075C459.765 341.225 459.598 340.5 459.265 339.9C458.932 339.283 458.482 338.817 457.915 338.5C457.348 338.167 456.74 338 456.09 338C455.44 338 454.84 338.158 454.29 338.475C453.74 338.792 453.29 339.258 452.94 339.875C452.607 340.475 452.44 341.192 452.44 342.025C452.44 342.858 452.607 343.592 452.94 344.225C453.29 344.842 453.74 345.317 454.29 345.65C454.857 345.983 455.457 346.15 456.09 346.15C456.74 346.15 457.348 345.992 457.915 345.675C458.482 345.342 458.932 344.875 459.265 344.275C459.598 343.658 459.765 342.925 459.765 342.075Z" fill="black"/>
<path d="M587.6 331.55V334.375H582.95V349H579.45V334.375H574.8V331.55H587.6ZM597.954 334.95C599.004 334.95 599.937 335.183 600.754 335.65C601.57 336.1 602.204 336.775 602.654 337.675C603.12 338.558 603.354 339.625 603.354 340.875V349H599.854V341.35C599.854 340.25 599.579 339.408 599.029 338.825C598.479 338.225 597.729 337.925 596.779 337.925C595.812 337.925 595.045 338.225 594.479 338.825C593.929 339.408 593.654 340.25 593.654 341.35V349H590.154V330.5H593.654V336.875C594.104 336.275 594.704 335.808 595.454 335.475C596.204 335.125 597.037 334.95 597.954 334.95ZM619.757 335.15V349H616.232V347.25C615.782 347.85 615.19 348.325 614.457 348.675C613.74 349.008 612.957 349.175 612.107 349.175C611.024 349.175 610.065 348.95 609.232 348.5C608.399 348.033 607.74 347.358 607.257 346.475C606.79 345.575 606.557 344.508 606.557 343.275V335.15H610.057V342.775C610.057 343.875 610.332 344.725 610.882 345.325C611.432 345.908 612.182 346.2 613.132 346.2C614.099 346.2 614.857 345.908 615.407 345.325C615.957 344.725 616.232 343.875 616.232 342.775V335.15H619.757ZM626.71 337.3C627.16 336.567 627.744 335.992 628.46 335.575C629.194 335.158 630.027 334.95 630.96 334.95V338.625H630.035C628.935 338.625 628.102 338.883 627.535 339.4C626.985 339.917 626.71 340.817 626.71 342.1V349H623.21V335.15H626.71V337.3Z" fill="black"/>
<path d="M766.5 331.55V334.375H759.225V338.85H764.8V341.625H759.225V349H755.725V331.55H766.5ZM772.482 337.3C772.932 336.567 773.515 335.992 774.232 335.575C774.965 335.158 775.799 334.95 776.732 334.95V338.625H775.807C774.707 338.625 773.874 338.883 773.307 339.4C772.757 339.917 772.482 340.817 772.482 342.1V349H768.982V335.15H772.482V337.3ZM780.864 333.5C780.248 333.5 779.731 333.308 779.314 332.925C778.914 332.525 778.714 332.033 778.714 331.45C778.714 330.867 778.914 330.383 779.314 330C779.731 329.6 780.248 329.4 780.864 329.4C781.481 329.4 781.989 329.6 782.389 330C782.806 330.383 783.014 330.867 783.014 331.45C783.014 332.033 782.806 332.525 782.389 332.925C781.989 333.308 781.481 333.5 780.864 333.5ZM782.589 335.15V349H779.089V335.15H782.589Z" fill="black"/>
<path d="M885.75 349.175C884.533 349.175 883.433 348.967 882.45 348.55C881.483 348.133 880.717 347.533 880.15 346.75C879.583 345.967 879.292 345.042 879.275 343.975H883.025C883.075 344.692 883.325 345.258 883.775 345.675C884.242 346.092 884.875 346.3 885.675 346.3C886.492 346.3 887.133 346.108 887.6 345.725C888.067 345.325 888.3 344.808 888.3 344.175C888.3 343.658 888.142 343.233 887.825 342.9C887.508 342.567 887.108 342.308 886.625 342.125C886.158 341.925 885.508 341.708 884.675 341.475C883.542 341.142 882.617 340.817 881.9 340.5C881.2 340.167 880.592 339.675 880.075 339.025C879.575 338.358 879.325 337.475 879.325 336.375C879.325 335.342 879.583 334.442 880.1 333.675C880.617 332.908 881.342 332.325 882.275 331.925C883.208 331.508 884.275 331.3 885.475 331.3C887.275 331.3 888.733 331.742 889.85 332.625C890.983 333.492 891.608 334.708 891.725 336.275H887.875C887.842 335.675 887.583 335.183 887.1 334.8C886.633 334.4 886.008 334.2 885.225 334.2C884.542 334.2 883.992 334.375 883.575 334.725C883.175 335.075 882.975 335.583 882.975 336.25C882.975 336.717 883.125 337.108 883.425 337.425C883.742 337.725 884.125 337.975 884.575 338.175C885.042 338.358 885.692 338.575 886.525 338.825C887.658 339.158 888.583 339.492 889.3 339.825C890.017 340.158 890.633 340.658 891.15 341.325C891.667 341.992 891.925 342.867 891.925 343.95C891.925 344.883 891.683 345.75 891.2 346.55C890.717 347.35 890.008 347.992 889.075 348.475C888.142 348.942 887.033 349.175 885.75 349.175ZM894.059 342.025C894.059 340.625 894.334 339.383 894.884 338.3C895.451 337.217 896.209 336.383 897.159 335.8C898.126 335.217 899.201 334.925 900.384 334.925C901.418 334.925 902.318 335.133 903.084 335.55C903.868 335.967 904.493 336.492 904.959 337.125V335.15H908.484V349H904.959V346.975C904.509 347.625 903.884 348.167 903.084 348.6C902.301 349.017 901.393 349.225 900.359 349.225C899.193 349.225 898.126 348.925 897.159 348.325C896.209 347.725 895.451 346.883 894.884 345.8C894.334 344.7 894.059 343.442 894.059 342.025ZM904.959 342.075C904.959 341.225 904.793 340.5 904.459 339.9C904.126 339.283 903.676 338.817 903.109 338.5C902.543 338.167 901.934 338 901.284 338C900.634 338 900.034 338.158 899.484 338.475C898.934 338.792 898.484 339.258 898.134 339.875C897.801 340.475 897.634 341.192 897.634 342.025C897.634 342.858 897.801 343.592 898.134 344.225C898.484 344.842 898.934 345.317 899.484 345.65C900.051 345.983 900.651 346.15 901.284 346.15C901.934 346.15 902.543 345.992 903.109 345.675C903.676 345.342 904.126 344.875 904.459 344.275C904.793 343.658 904.959 342.925 904.959 342.075ZM915.978 338.025V344.725C915.978 345.192 916.086 345.533 916.303 345.75C916.536 345.95 916.919 346.05 917.453 346.05H919.078V349H916.878C913.928 349 912.453 347.567 912.453 344.7V338.025H910.803V335.15H912.453V331.725H915.978V335.15H919.078V338.025H915.978Z" fill="black"/>
<path d="M1031.75 349.175C1030.53 349.175 1029.43 348.967 1028.45 348.55C1027.48 348.133 1026.72 347.533 1026.15 346.75C1025.58 345.967 1025.29 345.042 1025.28 343.975H1029.03C1029.08 344.692 1029.33 345.258 1029.78 345.675C1030.24 346.092 1030.88 346.3 1031.68 346.3C1032.49 346.3 1033.13 346.108 1033.6 345.725C1034.07 345.325 1034.3 344.808 1034.3 344.175C1034.3 343.658 1034.14 343.233 1033.83 342.9C1033.51 342.567 1033.11 342.308 1032.63 342.125C1032.16 341.925 1031.51 341.708 1030.68 341.475C1029.54 341.142 1028.62 340.817 1027.9 340.5C1027.2 340.167 1026.59 339.675 1026.08 339.025C1025.58 338.358 1025.33 337.475 1025.33 336.375C1025.33 335.342 1025.58 334.442 1026.1 333.675C1026.62 332.908 1027.34 332.325 1028.28 331.925C1029.21 331.508 1030.28 331.3 1031.48 331.3C1033.28 331.3 1034.73 331.742 1035.85 332.625C1036.98 333.492 1037.61 334.708 1037.73 336.275H1033.88C1033.84 335.675 1033.58 335.183 1033.1 334.8C1032.63 334.4 1032.01 334.2 1031.23 334.2C1030.54 334.2 1029.99 334.375 1029.58 334.725C1029.18 335.075 1028.98 335.583 1028.98 336.25C1028.98 336.717 1029.13 337.108 1029.43 337.425C1029.74 337.725 1030.13 337.975 1030.58 338.175C1031.04 338.358 1031.69 338.575 1032.53 338.825C1033.66 339.158 1034.58 339.492 1035.3 339.825C1036.02 340.158 1036.63 340.658 1037.15 341.325C1037.67 341.992 1037.93 342.867 1037.93 343.95C1037.93 344.883 1037.68 345.75 1037.2 346.55C1036.72 347.35 1036.01 347.992 1035.08 348.475C1034.14 348.942 1033.03 349.175 1031.75 349.175ZM1054.03 335.15V349H1050.51V347.25C1050.06 347.85 1049.47 348.325 1048.73 348.675C1048.02 349.008 1047.23 349.175 1046.38 349.175C1045.3 349.175 1044.34 348.95 1043.51 348.5C1042.68 348.033 1042.02 347.358 1041.53 346.475C1041.07 345.575 1040.83 344.508 1040.83 343.275V335.15H1044.33V342.775C1044.33 343.875 1044.61 344.725 1045.16 345.325C1045.71 345.908 1046.46 346.2 1047.41 346.2C1048.38 346.2 1049.13 345.908 1049.68 345.325C1050.23 344.725 1050.51 343.875 1050.51 342.775V335.15H1054.03ZM1065.16 334.95C1066.81 334.95 1068.15 335.475 1069.16 336.525C1070.18 337.558 1070.69 339.008 1070.69 340.875V349H1067.19V341.35C1067.19 340.25 1066.91 339.408 1066.36 338.825C1065.81 338.225 1065.06 337.925 1064.11 337.925C1063.15 337.925 1062.38 338.225 1061.81 338.825C1061.26 339.408 1060.99 340.25 1060.99 341.35V349H1057.49V335.15H1060.99V336.875C1061.45 336.275 1062.05 335.808 1062.76 335.475C1063.5 335.125 1064.3 334.95 1065.16 334.95Z" fill="black"/>
</svg>
